<?xml version="1.0" encoding="UTF-8" standalone="no"?>
<!-- Created with Inkscape (http://www.inkscape.org/) -->

<svg
   xmlns:dc="http://purl.org/dc/elements/1.1/"
   xmlns:cc="http://creativecommons.org/ns#"
   xmlns:rdf="http://www.w3.org/1999/02/22-rdf-syntax-ns#"
   xmlns:svg="http://www.w3.org/2000/svg"
   xmlns="http://www.w3.org/2000/svg"
   xmlns:sodipodi="http://sodipodi.sourceforge.net/DTD/sodipodi-0.dtd"
   xmlns:inkscape="http://www.inkscape.org/namespaces/inkscape"
   version="1.1"
   id="svg74149"
   xml:space="preserve"
   width="800"
   height="800"
   viewBox="0 0 800 800"
   sodipodi:docname="redcurrant-pdv.svg"
   inkscape:version="0.92.4 (5da689c313, 2019-01-14)"><metadata
     id="metadata74155"><rdf:RDF><cc:Work
         rdf:about=""><dc:format>image/svg+xml</dc:format><dc:type
           rdf:resource="http://purl.org/dc/dcmitype/StillImage" /><dc:title></dc:title></cc:Work></rdf:RDF></metadata><defs
     id="defs74153"><clipPath
       clipPathUnits="userSpaceOnUse"
       id="clipPath74165"><path
         d="M 0,600 H 600 V 0 H 0 Z"
         id="path74163"
         inkscape:connector-curvature="0" /></clipPath></defs><sodipodi:namedview
     pagecolor="#ffffff"
     bordercolor="#666666"
     borderopacity="1"
     objecttolerance="10"
     gridtolerance="10"
     guidetolerance="10"
     inkscape:pageopacity="0"
     inkscape:pageshadow="2"
     inkscape:window-width="797"
     inkscape:window-height="480"
     id="namedview74151"
     showgrid="false"
     inkscape:zoom="0.295"
     inkscape:cx="400"
     inkscape:cy="400"
     inkscape:window-x="0"
     inkscape:window-y="0"
     inkscape:window-maximized="0"
     inkscape:current-layer="g74157" /><g
     id="g74157"
     inkscape:groupmode="layer"
     inkscape:label="redcurrant-pdv"
     transform="matrix(1.3333333,0,0,-1.3333333,0,800)"><g
       id="g74159"><g
         id="g74161"
         clip-path="url(#clipPath74165)"><path
           d="m 328.822,381.896 c 64.908,-5.474 58.324,16.169 87.487,24.254 -2.91,3.012 -6.433,4.881 -11.26,4.331 37.611,24.987 23.864,57.781 45.04,67.563 -24.275,2.967 -45.3,-5.128 -64.097,-20.788 -1.099,4.042 -1.642,8.084 0,12.126 -14.506,3.084 -28.493,-6.293 -42.443,-16.456 9.03,37.385 -14.137,52.847 -20.788,79.688 -4.469,-2.043 -8.3,-4.839 -11.262,-8.661 -17.701,41.766 -38.689,31.759 -58.034,47.64 -12.517,-14.696 -14.429,-38.645 -6.93,-52.837 -3.831,1.56 -7.566,0.861 -11.261,-0.867 7.796,-26.564 -8.65,-54.564 23.387,-79.69 -37.978,17.225 -49.661,4.042 -74.492,6.064 0.148,-3.174 1.081,-5.718 2.599,-7.796 -21.557,-8.392 -41.65,-18.649 -51.105,-42.444 17.901,-5.486 26.763,-23.297 53.703,-16.457 0.893,-2.924 0.752,-5.804 0,-8.661 46.486,4.33 80.029,-35.098 139.456,12.991"
           style="fill:#1c941c;fill-opacity:1;fill-rule:evenodd;stroke:none"
           id="path74167"
           inkscape:connector-curvature="0" /><path
           d="m 253.465,571.593 c -12.517,-14.696 -14.429,-38.645 -6.93,-52.837 -3.831,1.56 -7.566,0.861 -11.261,-0.867 7.796,-26.564 -8.65,-54.564 23.387,-79.69 -37.978,17.225 -49.661,4.042 -74.492,6.064 0.148,-3.174 1.081,-5.718 2.599,-7.796 -21.557,-8.392 -41.65,-18.649 -51.105,-42.444 17.901,-5.486 26.763,-23.297 53.703,-16.457 0.893,-2.924 0.752,-5.804 0,-8.661 46.486,4.33 80.029,-35.098 139.456,12.991 -13.281,27.093 -22.283,59.324 -31.395,91.421 -7.279,24.266 -14.105,48.87 -29.756,66.856 -6.742,8.689 -12.401,18.341 -14.206,31.42"
           style="fill:#138013;fill-opacity:1;fill-rule:evenodd;stroke:none"
           id="path74169"
           inkscape:connector-curvature="0" /><path
           d="m 267.671,540.173 c 14.662,-15.339 23.955,-48.764 34.183,-84.745 -8.717,0.786 -22.42,2.221 -36.843,9.527 -3.457,5.408 -5.209,12.331 -5.279,20.751 -0.319,-7.224 0.417,-14.073 3.8,-19.984 -4.9,2.611 -9.867,5.917 -14.733,10.12 6.428,-7.594 17.723,-13.716 29.775,-17.674 -5.091,-3.263 -12.444,-5.052 -22.9,-4.82 8.222,-1.067 16.372,-0.481 24.332,4.361 7.585,-2.372 15.401,-3.883 22.439,-4.36 4.644,-16.317 9.505,-33.093 15.165,-48.898 -13.003,-3.305 -24.858,-4.733 -36.015,-4.957 2.292,8.198 1.699,15.64 -1.19,22.479 10.383,7.677 13.354,16.442 9.26,26.242 3.665,-12.128 -2.122,-19.136 -9.746,-25.147 -3.887,8.405 -11.261,15.896 -21.007,22.764 12.71,-10.811 20.005,-21.027 22.039,-30.666 -6.082,-1.11 -13.085,0.743 -20.739,4.69 7.097,-4.331 14.097,-6.778 20.902,-5.524 0.922,-5.119 0.354,-10.074 -1.687,-14.867 -11.124,-0.07 -21.574,1.034 -31.809,2.634 2.675,6.778 -0.81,12.207 -7.065,17.029 6.425,-6.09 8.336,-11.702 6.109,-16.878 -10.413,1.661 -20.617,3.815 -31.094,5.744 -2.454,6.717 -6.731,12.453 -13.617,16.787 6.29,-4.705 10.052,-10.33 12.233,-16.533 -16.741,3.041 -34.227,5.434 -54.426,4.266 15.384,0.433 28.263,-0.777 39.978,-2.675 -7.884,-7.634 -18.746,-11.807 -31.028,-14.335 13.093,1.764 23.949,6.365 32.31,14.123 13.329,-2.231 25.189,-5.323 37.587,-7.852 -6.582,-5.256 -15.937,-7.875 -27.846,-8.066 11.721,-1.328 21.688,1.3 30.012,7.634 8.936,-1.761 18.208,-3.187 28.555,-3.755 -4.592,-4.713 -9.609,-8.706 -15.013,-12.045 -5.869,4.142 -13.048,4.812 -21.501,2.117 8.437,2.049 15.451,1.321 20.876,-2.499 -10.485,-6.345 -22.405,-10.265 -35.483,-12.223 14.537,1.305 28.797,5.452 42.526,15.056 5.46,-5.129 5.771,-12.869 0.686,-20.525 5.155,6.668 7.107,13.592 0.289,21.218 3.531,2.542 7.028,5.449 10.485,8.769 13.24,-0.51 28.278,0.41 46.576,3.803 11.891,-32.275 27.34,-60.006 51.46,-70.638 l 2.861,5.135 c -37.13,16.09 -54.149,69.601 -69.115,119.038 4.293,0.159 8.368,1.916 11.846,4.692 v -0.003 c 7.699,-1.072 15.55,0.655 23.522,4.65 -7.468,-2.793 -15.163,-4.875 -22.382,-3.683 4.77,4.278 8.236,10.511 9.292,17.035 -2.688,-12.471 -13.005,-21.402 -22.721,-21.233 -10.698,35.364 -20.437,68.427 -35.859,83.921"
           style="fill:#095709;fill-opacity:1;fill-rule:evenodd;stroke:none"
           id="path74171"
           inkscape:connector-curvature="0" /><path
           d="m 292.378,489.872 c -8.246,6.835 -16.58,13.44 -25.741,17.866 -0.796,4.342 -2.642,8.236 -7.137,10.992 3.83,-2.969 5.589,-6.585 6.213,-10.557 -3.829,1.778 -7.807,3.169 -11.984,4.032 8.267,-2.295 15.577,-6.221 22.437,-10.913 -13.183,2.08 -23.294,-0.977 -30.702,-8.697 9.495,8.301 20.555,9.817 32.515,7.433 5.125,-3.641 10.019,-7.676 14.901,-11.733 -0.168,0.525 -0.335,1.051 -0.502,1.577"
           style="fill:#095709;fill-opacity:1;fill-rule:evenodd;stroke:none"
           id="path74173"
           inkscape:connector-curvature="0" /><path
           d="m 292.88,488.479 c 4.558,1.878 10.729,6.585 15.147,14.298 -3.253,4.13 -4.723,8.974 -3.483,14.901 -0.687,-7.044 1.245,-10.984 4.021,-13.925 2.297,4.284 4.042,9.44 4.717,15.498 -0.487,-8.534 -2.78,-15.745 -7.132,-21.662 6.918,-2.144 14.115,-0.439 21.08,1.631 -7.008,-2.548 -14.176,-4.186 -21.891,-2.691 -3.04,-3.804 -6.984,-7.046 -11.911,-9.732 -0.22,1.463 -0.329,0.221 -0.548,1.682"
           style="fill:#095709;fill-opacity:1;fill-rule:evenodd;stroke:none"
           id="path74175"
           inkscape:connector-curvature="0" /><path
           d="m 321.539,397.869 c 9.638,2.279 17.763,5.556 24.952,9.484 -4.522,5.075 -6.966,10.633 -7.762,16.581 -9.333,1.81 -14.487,7.048 -15.656,15.554 2.314,-10.025 8.55,-12.996 15.542,-14.593 -0.765,7.43 0.973,15.448 4.412,23.863 -3.787,-12.309 -4.447,-22.256 -2.061,-29.911 4.186,1.376 7.825,5.208 11.075,10.779 -2.761,-5.648 -6.172,-9.906 -10.861,-11.437 1.363,-4.008 3.588,-7.367 6.663,-10.083 6.92,3.924 12.978,8.45 18.713,13.254 -4.217,3.917 -4.112,9.064 -2.057,14.764 -1.681,-6.672 -0.744,-11.388 2.593,-14.312 5.823,4.912 11.332,10.104 17.095,15.232 -1.02,5.705 -0.538,11.355 2.09,16.929 -2.119,-5.626 -2.323,-11.013 -1.33,-16.25 9.223,8.165 19.154,16.129 32.111,22.505 -9.696,-5.183 -17.221,-10.654 -23.759,-16.202 7.767,-2.671 16.077,-1.791 24.641,0.779 -8.78,-3.409 -17.244,-3.979 -25.357,-1.389 -7.414,-6.364 -13.596,-12.824 -20.321,-19.067 6.065,-1.428 12.851,0.031 20.302,4.146 -6.759,-5.14 -13.927,-6.81 -21.478,-5.232 -4.873,-4.458 -10.077,-8.794 -16.275,-12.898 4.627,-1.747 9.247,-2.825 13.855,-3.294 2.069,5.074 6.265,8.12 12.521,9.2 -6.001,-1.541 -10.073,-4.567 -11.988,-9.25 8.896,-0.817 17.76,0.624 26.606,3.885 -9.501,-4.253 -19.905,-6.364 -32.04,-4.366 -1.446,-5.637 1.286,-11.311 7.33,-14.997 -5.713,2.951 -9.539,7.229 -8.198,15.146 -3.148,0.566 -6.416,1.407 -9.809,2.558 -8.148,-5.179 -17.998,-9.961 -30.932,-14.107 -0.204,0.911 -0.41,1.819 -0.617,2.729"
           style="fill:#095709;fill-opacity:1;fill-rule:evenodd;stroke:none"
           id="path74177"
           inkscape:connector-curvature="0" /><path
           d="m 324.043,321.62 c 25.132,39.13 9.272,42.201 13.912,63.303 -2.873,-0.831 -5.229,-2.43 -6.495,-5.659 -3.207,32.079 -28.491,34.354 -27.591,50.984 -9.979,-14.328 -11.891,-30.297 -8.287,-47.389 -2.919,0.656 -5.652,1.662 -7.652,4.05 -6.79,-8.123 -5.544,-20.081 -3.789,-32.279 -20.578,18.183 -38.071,8.727 -57.228,13.494 -0.204,-3.503 0.28,-6.853 1.703,-9.998 -32.264,2.777 -32.961,-13.808 -49.442,-20.712 5.094,-12.809 19.567,-22.011 31.029,-22.016 -2.265,-1.899 -3.071,-4.489 -3.216,-7.398 19.367,-3.951 31.544,-23.677 58.098,-11.853 -23.553,-18.214 -19.136,-29.99 -28.702,-44.983 2.051,-0.965 3.968,-1.226 5.786,-0.963 -1.904,-16.406 -2.142,-32.508 9.715,-46.423 9.441,9.465 23.64,9.11 28.321,28.394 2.144,-0.415 3.914,-1.464 5.466,-2.892 12.79,30.78 48.871,38.778 38.372,92.34"
           style="fill:#1c941c;fill-opacity:1;fill-rule:evenodd;stroke:none"
           id="path74179"
           inkscape:connector-curvature="0" /><path
           d="m 179.174,337.414 c 5.094,-12.809 19.567,-22.011 31.029,-22.016 -2.265,-1.899 -3.071,-4.489 -3.216,-7.398 19.367,-3.951 31.544,-23.677 58.098,-11.853 -23.553,-18.214 -19.136,-29.99 -28.702,-44.983 2.051,-0.965 3.968,-1.226 5.786,-0.963 -1.904,-16.406 -2.142,-32.508 9.715,-46.423 9.441,9.465 23.64,9.11 28.321,28.394 2.144,-0.415 3.914,-1.464 5.466,-2.892 12.79,30.78 48.871,38.778 38.372,92.34 -21.531,0.662 -44.875,5.746 -68.176,10.715 -17.741,3.512 -35.546,7.421 -52.124,3.551 -7.733,-1.352 -15.714,-1.7 -24.569,1.528"
           style="fill:#138013;fill-opacity:1;fill-rule:evenodd;stroke:none"
           id="path74181"
           inkscape:connector-curvature="0" /><path
           d="m 203.743,335.886 c 14.577,4.13 38.773,-1.167 64.895,-6.729 -3.407,-5.237 -8.89,-13.408 -18.317,-20.072 -4.566,-0.374 -9.52,0.833 -14.857,3.601 4.452,-2.612 9.019,-4.436 13.88,-4.276 -3.284,-2.22 -7.031,-4.251 -11.307,-5.916 6.938,1.522 14.575,6.606 21.096,12.885 0.359,-4.302 -0.967,-9.537 -4.606,-16.059 3.42,4.83 5.772,10.171 5.374,16.81 4.03,3.994 7.593,8.423 10.245,12.705 11.847,-2.52 24.055,-5.055 35.92,-6.759 -2.257,-9.308 -5.315,-17.268 -8.899,-24.383 -4.409,4.181 -9.303,6.293 -14.582,6.754 -1.377,9.117 -5.916,13.918 -13.466,14.607 8.875,-1.738 11.365,-7.727 12.612,-14.544 -6.602,0.35 -13.792,-1.8 -21.378,-5.656 11.065,4.408 19.948,5.601 26.71,3.667 -1.332,-4.208 -4.839,-8.011 -9.886,-11.52 5.103,3.031 8.983,6.63 10.467,11.344 3.537,-1.128 6.473,-3.142 8.817,-6.03 -3.67,-7.043 -7.856,-13.269 -12.283,-19.193 -3.386,3.95 -7.976,3.566 -13.108,1.229 5.99,2.021 10.169,1.351 12.693,-1.782 -4.528,-6.014 -9.292,-11.737 -14.008,-17.7 -5.059,0.692 -10.107,-0.094 -15.141,-2.991 5.069,2.4 9.874,2.895 14.517,2.199 -7.509,-9.549 -14.86,-19.784 -20.866,-32.919 4.864,9.852 9.927,17.576 15.038,24.335 2.184,-7.525 1.189,-15.775 -1.317,-24.368 3.26,8.853 3.981,17.239 1.878,25.105 5.859,7.665 11.772,14.117 17.506,21.097 1.12,-5.909 -0.352,-12.688 -4.209,-20.266 4.754,6.954 6.424,14.122 5.206,21.486 4.096,5.053 8.092,10.427 11.906,16.768 1.442,-4.473 2.285,-8.972 2.585,-13.5 -4.572,-2.318 -7.392,-6.625 -8.514,-12.855 1.523,6.005 4.326,10.186 8.547,12.338 0.503,-8.737 -1.003,-17.567 -4.134,-26.475 4.028,9.61 6.175,19.993 4.701,31.864 5.059,1.732 10.046,-0.656 13.182,-6.421 -2.488,5.477 -6.204,9.022 -13.295,7.267 -0.425,3.078 -1.092,6.256 -2.032,9.544 4.743,8.186 9.182,17.982 13.157,30.663 24.335,-3.276 46.994,-2.787 61.757,8.881 l -2.286,3.52 c -22.551,-18.056 -62.002,-10.925 -98.197,-3.861 1.332,2.763 1.587,5.922 0.995,9.045 l 0.001,-0.004 c 3.248,4.501 4.781,10.032 4.922,16.398 -0.73,-5.647 -1.986,-11.199 -5.148,-15.354 -1.11,4.439 -3.884,8.705 -7.648,11.552 6.972,-5.861 9.162,-15.353 5.81,-21.43 -25.887,5.06 -50.003,9.955 -64.933,5.399"
           style="fill:#095709;fill-opacity:1;fill-rule:evenodd;stroke:none"
           id="path74183"
           inkscape:connector-curvature="0" /><path
           d="m 243.737,334.678 c -7.066,-2.919 -14.017,-5.975 -19.87,-10.279 -3.006,0.951 -6.079,1.085 -9.319,-0.83 3.151,1.426 6.02,1.325 8.734,0.394 -2.399,-1.819 -4.604,-3.867 -6.546,-6.215 4.209,4.448 9.129,7.751 14.381,10.516 -5.715,-7.626 -7.163,-15.026 -4.764,-22.281 -2.069,8.762 0.669,16.249 6.168,23.001 4.009,2.019 8.188,3.759 12.378,5.485 -0.386,0.07 -0.774,0.139 -1.162,0.209"
           style="fill:#095709;fill-opacity:1;fill-rule:evenodd;stroke:none"
           id="path74185"
           inkscape:connector-curvature="0" /><path
           d="m 244.784,334.529 c 0.337,3.504 -0.571,8.972 -3.965,14.334 -3.692,-0.674 -7.239,0.017 -10.566,2.779 4.217,-2.787 7.348,-2.883 10.131,-2.113 -1.938,2.879 -4.609,5.703 -8.204,8.153 5.22,-3.161 9.007,-7.014 11.287,-11.736 3.662,3.651 4.99,8.761 6.01,13.847 -0.732,-5.273 -2.092,-10.345 -5.614,-14.713 1.388,-3.187 2.116,-6.761 2.164,-10.767 -0.996,0.35 -0.249,-0.132 -1.243,0.216"
           style="fill:#095709;fill-opacity:1;fill-rule:evenodd;stroke:none"
           id="path74187"
           inkscape:connector-curvature="0" /><path
           d="m 311.532,322.356 c 1.781,6.844 2.425,13.064 2.348,18.911 -4.712,-1.157 -9.036,-0.844 -13.056,0.641 -4.259,-5.286 -9.285,-6.789 -15.042,-4.685 7.099,-1.887 11.054,1.053 14.399,4.934 -4.945,1.997 -9.424,5.771 -13.586,10.754 6.503,-6.503 12.562,-10.24 18.186,-11.293 0.531,3.103 -0.674,6.679 -3.103,10.591 2.642,-3.629 4.19,-7.202 3.59,-10.675 2.985,-0.478 5.846,-0.195 8.587,0.84 -0.163,5.677 -0.998,11.009 -2.114,16.233 -3.882,-1.353 -7.092,0.432 -10.003,3.632 3.648,-3.287 6.938,-4.271 9.898,-3.142 -1.156,5.314 -2.593,10.524 -3.906,15.874 -3.938,1.261 -7.342,3.453 -9.982,6.972 2.843,-3.217 6.173,-5.143 9.81,-6.266 -2.073,8.546 -3.782,17.473 -3.478,27.778 0.034,-7.85 0.973,-14.423 2.289,-20.404 4.279,4.012 6.5,9.548 7.738,15.81 -0.779,-6.677 -3.247,-12.21 -7.591,-16.465 1.538,-6.803 3.552,-12.861 5.247,-19.19 2.925,3.352 4.272,8.12 4.162,14.197 0.986,-5.982 -0.356,-11.065 -3.872,-15.303 1.186,-4.563 2.184,-9.295 2.705,-14.576 2.645,2.335 4.868,4.89 6.707,7.645 -2.511,2.998 -3.034,6.663 -1.627,10.972 -1.032,-4.301 -0.481,-7.882 1.834,-10.657 3.484,5.342 5.54,11.416 6.432,18.088 -0.49,-7.416 -2.63,-14.685 -7.945,-21.677 3.077,-2.793 7.569,-2.962 11.915,-0.38 -3.77,-2.62 -7.748,-3.606 -12.297,-0.116 -1.409,-1.797 -3.031,-3.578 -4.889,-5.336 0.548,-6.869 0.273,-14.683 -1.428,-24.227 -0.644,0.173 -1.284,0.346 -1.928,0.52"
           style="fill:#095709;fill-opacity:1;fill-rule:evenodd;stroke:none"
           id="path74189"
           inkscape:connector-curvature="0" /><path
           d="M 460.048,406.564 C 317.648,328.25 350.26,272.959 354.201,120.118 c 6.07,156.522 -30.12,204.769 113.812,277.737 9.544,4.84 10.024,18.601 -7.965,8.709"
           style="fill:#095709;fill-opacity:1;fill-rule:evenodd;stroke:none"
           id="path74191"
           inkscape:connector-curvature="0" /><path
           d="m 367.902,314.445 c 2.19,-10.329 6.319,-15.999 13.418,-19.201 -7.023,3.414 -13.168,15.968 -10.321,25.102 -2.911,-0.608 -4.676,-3.657 -3.097,-5.901"
           style="fill:#095709;fill-opacity:1;fill-rule:evenodd;stroke:none"
           id="path74193"
           inkscape:connector-curvature="0" /><path
           d="m 382.943,281.971 c 5.685,0 10.322,4.637 10.322,10.324 0,5.686 -4.637,10.323 -10.322,10.323 -5.688,0 -10.326,-4.637 -10.326,-10.323 0,-5.687 4.638,-10.324 10.326,-10.324"
           style="fill:#b80000;fill-opacity:1;fill-rule:evenodd;stroke:none"
           id="path74195"
           inkscape:connector-curvature="0" /><path
           d="m 382.941,302.618 c -5.701,0 -10.324,-4.623 -10.324,-10.323 0,-1.875 0.499,-3.632 1.375,-5.149 1.808,-1.56 4.162,-2.501 6.738,-2.501 5.702,0 10.322,4.623 10.322,10.321 0,1.877 -0.499,3.635 -1.373,5.151 -1.81,1.561 -4.162,2.501 -6.738,2.501"
           style="fill:#e00000;fill-opacity:1;fill-rule:evenodd;stroke:none"
           id="path74197"
           inkscape:connector-curvature="0" /><path
           d="m 376.832,300.218 c 2.664,1.944 5.818,1.514 7.038,-0.96 1.224,-2.47 0.053,-6.051 -2.611,-7.993 -2.665,-1.945 -5.815,-1.517 -7.038,0.955 -1.22,2.472 -0.051,6.053 2.611,7.998"
           style="fill:#eb2323;fill-opacity:1;fill-rule:evenodd;stroke:none"
           id="path74199"
           inkscape:connector-curvature="0" /><path
           d="m 376.529,299.757 c 1.072,0.783 2.343,0.61 2.833,-0.384 0.494,-0.998 0.022,-2.438 -1.051,-3.221 -1.074,-0.783 -2.343,-0.61 -2.832,0.384 -0.496,0.998 -0.025,2.439 1.05,3.221"
           style="fill:#e03d3d;fill-opacity:1;fill-rule:evenodd;stroke:none"
           id="path74201"
           inkscape:connector-curvature="0" /><path
           d="m 389.048,284.633 1.798,-1.729 -0.509,0.046 0.115,-1.129 -0.046,0.092 -0.367,0.369 -0.115,-0.667 -0.44,0.322 -0.09,-0.509 -1.199,2.674 c -0.216,0.485 0.471,0.874 0.853,0.531"
           style="fill:#402000;fill-opacity:1;fill-rule:evenodd;stroke:none"
           id="path74203"
           inkscape:connector-curvature="0" /><path
           d="m 356.223,281.049 c 4.929,-13.102 11.478,-19.712 21.425,-22.487 -9.889,3.073 -20.454,18.295 -18.547,30.835 -3.695,-1.377 -5.399,-5.727 -2.878,-8.348"
           style="fill:#095709;fill-opacity:1;fill-rule:evenodd;stroke:none"
           id="path74205"
           inkscape:connector-curvature="0" /><path
           d="m 375.354,242.854 c 7.539,0 13.686,6.147 13.686,13.687 0,7.537 -6.147,13.687 -13.686,13.687 -7.538,0 -13.688,-6.15 -13.688,-13.687 0,-7.54 6.15,-13.687 13.688,-13.687"
           style="fill:#b80000;fill-opacity:1;fill-rule:evenodd;stroke:none"
           id="path74207"
           inkscape:connector-curvature="0" /><path
           d="m 375.354,270.228 c -7.559,0 -13.688,-6.13 -13.688,-13.69 0,-2.486 0.663,-4.817 1.822,-6.826 2.399,-2.066 5.519,-3.317 8.932,-3.317 7.561,0 13.687,6.127 13.687,13.689 0,2.486 -0.663,4.817 -1.822,6.826 -2.397,2.068 -5.518,3.318 -8.931,3.318"
           style="fill:#e00000;fill-opacity:1;fill-rule:evenodd;stroke:none"
           id="path74209"
           inkscape:connector-curvature="0" /><path
           d="m 367.255,267.043 c 3.533,2.577 7.71,2.009 9.332,-1.271 1.618,-3.276 0.067,-8.024 -3.466,-10.599 -3.533,-2.578 -7.71,-2.01 -9.328,1.267 -1.622,3.279 -0.072,8.027 3.462,10.603"
           style="fill:#eb2323;fill-opacity:1;fill-rule:evenodd;stroke:none"
           id="path74211"
           inkscape:connector-curvature="0" /><path
           d="m 366.852,266.436 c 1.42,1.037 3.105,0.806 3.755,-0.514 0.654,-1.32 0.03,-3.232 -1.394,-4.269 -1.421,-1.036 -3.106,-0.808 -3.759,0.509 -0.65,1.32 -0.026,3.234 1.398,4.274"
           style="fill:#e03d3d;fill-opacity:1;fill-rule:evenodd;stroke:none"
           id="path74213"
           inkscape:connector-curvature="0" /><path
           d="m 383.447,246.38 2.386,-2.292 -0.674,0.062 0.152,-1.498 -0.061,0.122 -0.487,0.491 -0.154,-0.886 -0.581,0.427 -0.12,-0.672 -1.589,3.543 c -0.288,0.643 0.624,1.162 1.128,0.703"
           style="fill:#402000;fill-opacity:1;fill-rule:evenodd;stroke:none"
           id="path74215"
           inkscape:connector-curvature="0" /><path
           d="m 351.188,247.251 c 4.929,-13.101 11.477,-19.709 21.424,-22.483 -9.889,3.069 -20.451,18.295 -18.546,30.835 -3.696,-1.378 -5.4,-5.728 -2.878,-8.352"
           style="fill:#095709;fill-opacity:1;fill-rule:evenodd;stroke:none"
           id="path74217"
           inkscape:connector-curvature="0" /><path
           d="m 370.317,209.057 c 7.542,0 13.69,6.149 13.69,13.686 0,7.538 -6.148,13.688 -13.69,13.688 -7.537,0 -13.686,-6.15 -13.686,-13.688 0,-7.537 6.149,-13.686 13.686,-13.686"
           style="fill:#b80000;fill-opacity:1;fill-rule:evenodd;stroke:none"
           id="path74219"
           inkscape:connector-curvature="0" /><path
           d="m 370.317,236.431 c -7.556,0 -13.686,-6.128 -13.686,-13.688 0,-2.486 0.662,-4.817 1.824,-6.826 2.396,-2.069 5.516,-3.317 8.932,-3.317 7.558,0 13.686,6.128 13.686,13.686 0,2.487 -0.665,4.818 -1.821,6.827 -2.398,2.07 -5.522,3.318 -8.935,3.318"
           style="fill:#e00000;fill-opacity:1;fill-rule:evenodd;stroke:none"
           id="path74221"
           inkscape:connector-curvature="0" /><path
           d="m 362.221,233.248 c 3.531,2.575 7.713,2.006 9.33,-1.27 1.621,-3.277 0.067,-8.025 -3.463,-10.603 -3.534,-2.578 -7.71,-2.009 -9.331,1.271 -1.62,3.278 -0.067,8.024 3.464,10.602"
           style="fill:#eb2323;fill-opacity:1;fill-rule:evenodd;stroke:none"
           id="path74223"
           inkscape:connector-curvature="0" /><path
           d="m 361.815,232.638 c 1.423,1.037 3.107,0.809 3.759,-0.511 0.654,-1.32 0.03,-3.233 -1.394,-4.271 -1.424,-1.037 -3.107,-0.806 -3.759,0.511 -0.65,1.321 -0.026,3.234 1.394,4.271"
           style="fill:#e03d3d;fill-opacity:1;fill-rule:evenodd;stroke:none"
           id="path74225"
           inkscape:connector-curvature="0" /><path
           d="m 378.411,212.585 2.387,-2.292 -0.673,0.06 0.151,-1.498 -0.059,0.124 -0.49,0.491 -0.154,-0.889 -0.581,0.428 -0.12,-0.672 -1.589,3.545 c -0.288,0.643 0.624,1.159 1.128,0.703"
           style="fill:#402000;fill-opacity:1;fill-rule:evenodd;stroke:none"
           id="path74227"
           inkscape:connector-curvature="0" /><path
           d="m 351.188,206.325 c 4.929,-13.101 11.477,-19.707 21.424,-22.484 -9.889,3.07 -20.451,18.298 -18.546,30.835 -3.696,-1.378 -5.4,-5.728 -2.878,-8.351"
           style="fill:#095709;fill-opacity:1;fill-rule:evenodd;stroke:none"
           id="path74229"
           inkscape:connector-curvature="0" /><path
           d="m 370.317,168.13 c 7.542,0 13.69,6.15 13.69,13.687 0,7.539 -6.148,13.687 -13.69,13.687 -7.537,0 -13.686,-6.148 -13.686,-13.687 0,-7.537 6.149,-13.687 13.686,-13.687"
           style="fill:#b80000;fill-opacity:1;fill-rule:evenodd;stroke:none"
           id="path74231"
           inkscape:connector-curvature="0" /><path
           d="m 370.317,195.504 c -7.556,0 -13.686,-6.126 -13.686,-13.687 0,-2.487 0.662,-4.817 1.824,-6.827 2.396,-2.066 5.516,-3.317 8.932,-3.317 7.558,0 13.686,6.129 13.686,13.687 0,2.487 -0.665,4.82 -1.821,6.829 -2.398,2.067 -5.522,3.315 -8.935,3.315"
           style="fill:#e00000;fill-opacity:1;fill-rule:evenodd;stroke:none"
           id="path74233"
           inkscape:connector-curvature="0" /><path
           d="m 362.221,192.321 c 3.531,2.578 7.713,2.009 9.33,-1.267 1.621,-3.279 0.067,-8.027 -3.463,-10.605 -3.534,-2.576 -7.71,-2.007 -9.331,1.272 -1.62,3.277 -0.067,8.022 3.464,10.6"
           style="fill:#eb2323;fill-opacity:1;fill-rule:evenodd;stroke:none"
           id="path74235"
           inkscape:connector-curvature="0" /><path
           d="m 361.815,191.712 c 1.423,1.036 3.107,0.81 3.759,-0.512 0.654,-1.32 0.03,-3.23 -1.394,-4.27 -1.424,-1.037 -3.107,-0.807 -3.759,0.513 -0.65,1.321 -0.026,3.232 1.394,4.269"
           style="fill:#e03d3d;fill-opacity:1;fill-rule:evenodd;stroke:none"
           id="path74237"
           inkscape:connector-curvature="0" /><path
           d="m 378.411,171.659 2.387,-2.293 -0.673,0.061 0.151,-1.496 -0.059,0.123 -0.49,0.489 -0.154,-0.888 -0.581,0.427 -0.12,-0.672 -1.589,3.545 c -0.288,0.644 0.624,1.16 1.128,0.704"
           style="fill:#402000;fill-opacity:1;fill-rule:evenodd;stroke:none"
           id="path74239"
           inkscape:connector-curvature="0" /><path
           d="m 352.622,167.634 c 4.371,-10.243 9.803,-15.265 17.806,-17.127 -7.967,2.097 -16.889,13.831 -15.809,23.862 -2.89,-1.222 -4.093,-4.741 -1.997,-6.735"
           style="fill:#095709;fill-opacity:1;fill-rule:evenodd;stroke:none"
           id="path74241"
           inkscape:connector-curvature="0" /><path
           d="m 368.2,159.695 c -6.008,-0.258 -10.667,-5.343 -10.403,-11.351 0.265,-6.008 5.346,-10.665 11.353,-10.401 6.006,0.262 10.665,5.343 10.404,11.352 -0.264,6.008 -5.348,10.664 -11.354,10.4"
           style="fill:#b80000;fill-opacity:1;fill-rule:evenodd;stroke:none"
           id="path74243"
           inkscape:connector-curvature="0" /><path
           d="m 368.2,159.695 c -6.008,-0.258 -10.667,-5.343 -10.403,-11.351 0.087,-1.976 0.694,-3.805 1.685,-5.363 1.978,-1.557 4.5,-2.443 7.215,-2.326 6.006,0.265 10.663,5.349 10.404,11.355 -0.086,1.977 -0.697,3.806 -1.688,5.362 -1.977,1.56 -4.5,2.443 -7.213,2.323"
           style="fill:#e00000;fill-opacity:1;fill-rule:evenodd;stroke:none"
           id="path74245"
           inkscape:connector-curvature="0" /><path
           d="m 361.873,156.887 c 2.72,2.17 6.059,1.863 7.46,-0.687 1.402,-2.549 0.334,-6.375 -2.384,-8.545 -2.719,-2.17 -6.057,-1.863 -7.46,0.687 -1.399,2.549 -0.334,6.373 2.384,8.545"
           style="fill:#eb2323;fill-opacity:1;fill-rule:evenodd;stroke:none"
           id="path74247"
           inkscape:connector-curvature="0" /><path
           d="m 361.575,156.388 c 1.095,0.874 2.439,0.751 3.003,-0.277 0.565,-1.024 0.135,-2.565 -0.958,-3.439 -1.097,-0.874 -2.443,-0.751 -3.005,0.273 -0.566,1.028 -0.135,2.569 0.96,3.443"
           style="fill:#e03d3d;fill-opacity:1;fill-rule:evenodd;stroke:none"
           id="path74249"
           inkscape:connector-curvature="0" /><path
           d="m 375.459,141.027 1.976,-1.74 -0.536,0.026 0.173,-1.183 -0.052,0.094 -0.407,0.372 -0.089,-0.71 -0.479,0.321 -0.072,-0.54 -1.388,2.763 c -0.249,0.499 0.456,0.941 0.874,0.597"
           style="fill:#402000;fill-opacity:1;fill-rule:evenodd;stroke:none"
           id="path74251"
           inkscape:connector-curvature="0" /><path
           d="m 351.676,262.417 c -7.998,-11.483 -15.972,-16.279 -26.296,-16.524 10.341,0.545 24.325,12.703 25.561,25.326 3.244,-2.244 3.825,-6.879 0.735,-8.802"
           style="fill:#095709;fill-opacity:1;fill-rule:evenodd;stroke:none"
           id="path74253"
           inkscape:connector-curvature="0" /><path
           d="m 330.778,229.368 c 7.537,0 13.688,6.146 13.688,13.688 0,7.537 -6.151,13.686 -13.688,13.686 -7.539,0 -13.686,-6.149 -13.686,-13.686 0,-7.542 6.147,-13.688 13.686,-13.688"
           style="fill:#b80000;fill-opacity:1;fill-rule:evenodd;stroke:none"
           id="path74255"
           inkscape:connector-curvature="0" /><path
           d="m 330.778,256.742 c -7.561,0 -13.689,-6.13 -13.689,-13.689 0.003,-2.487 0.663,-4.818 1.822,-6.826 2.401,-2.067 5.521,-3.318 8.934,-3.318 7.559,0 13.687,6.128 13.687,13.69 0,2.486 -0.663,4.815 -1.824,6.826 -2.395,2.067 -5.517,3.317 -8.93,3.317"
           style="fill:#e00000;fill-opacity:1;fill-rule:evenodd;stroke:none"
           id="path74257"
           inkscape:connector-curvature="0" /><path
           d="m 322.68,253.558 c 3.533,2.577 7.71,2.008 9.33,-1.271 1.62,-3.278 0.069,-8.024 -3.464,-10.599 -3.533,-2.579 -7.71,-2.009 -9.33,1.267 -1.62,3.278 -0.07,8.026 3.464,10.603"
           style="fill:#eb2323;fill-opacity:1;fill-rule:evenodd;stroke:none"
           id="path74259"
           inkscape:connector-curvature="0" /><path
           d="m 322.276,252.947 c 1.421,1.04 3.104,0.81 3.757,-0.51 0.653,-1.321 0.027,-3.232 -1.394,-4.269 -1.424,-1.039 -3.107,-0.811 -3.76,0.51 -0.652,1.319 -0.028,3.232 1.397,4.269"
           style="fill:#e03d3d;fill-opacity:1;fill-rule:evenodd;stroke:none"
           id="path74261"
           inkscape:connector-curvature="0" /><path
           d="m 321.537,233.925 -2.026,-2.612 -0.012,0.674 -1.472,-0.309 0.116,0.072 0.432,0.537 -0.898,0.058 0.365,0.624 -0.682,0.049 3.356,1.958 c 0.61,0.353 1.22,-0.499 0.821,-1.051"
           style="fill:#402000;fill-opacity:1;fill-rule:evenodd;stroke:none"
           id="path74263"
           inkscape:connector-curvature="0" /><path
           d="m 357.082,299.849 c -6.061,-8.7 -12.099,-12.331 -19.919,-12.516 7.83,0.413 18.426,9.621 19.361,19.182 2.455,-1.701 2.896,-5.212 0.558,-6.666"
           style="fill:#095709;fill-opacity:1;fill-rule:evenodd;stroke:none"
           id="path74265"
           inkscape:connector-curvature="0" /><path
           d="m 341.251,274.815 c 5.711,0 10.367,4.657 10.367,10.368 0,5.708 -4.656,10.364 -10.367,10.364 -5.71,0 -10.367,-4.656 -10.367,-10.364 0,-5.711 4.657,-10.368 10.367,-10.368"
           style="fill:#b80000;fill-opacity:1;fill-rule:evenodd;stroke:none"
           id="path74267"
           inkscape:connector-curvature="0" /><path
           d="m 341.249,295.547 c -5.723,0.003 -10.365,-4.64 -10.365,-10.364 0,-1.885 0.5,-3.65 1.381,-5.171 1.816,-1.566 4.178,-2.513 6.763,-2.513 5.726,0 10.368,4.642 10.368,10.367 0,1.884 -0.501,3.649 -1.38,5.17 -1.818,1.566 -4.179,2.511 -6.767,2.511"
           style="fill:#e00000;fill-opacity:1;fill-rule:evenodd;stroke:none"
           id="path74269"
           inkscape:connector-curvature="0" /><path
           d="m 335.118,293.137 c 2.674,1.954 5.838,1.522 7.067,-0.96 1.224,-2.482 0.05,-6.08 -2.626,-8.031 -2.674,-1.953 -5.837,-1.523 -7.067,0.961 -1.223,2.485 -0.053,6.079 2.626,8.03"
           style="fill:#eb2323;fill-opacity:1;fill-rule:evenodd;stroke:none"
           id="path74271"
           inkscape:connector-curvature="0" /><path
           d="m 334.812,292.676 c 1.075,0.788 2.351,0.612 2.846,-0.389 0.494,-0.998 0.019,-2.445 -1.056,-3.233 -1.081,-0.784 -2.353,-0.613 -2.847,0.386 -0.494,1.001 -0.022,2.449 1.057,3.236"
           style="fill:#e03d3d;fill-opacity:1;fill-rule:evenodd;stroke:none"
           id="path74273"
           inkscape:connector-curvature="0" /><path
           d="m 334.249,278.267 -1.533,-1.978 -0.008,0.511 -1.113,-0.236 0.086,0.058 0.327,0.406 -0.678,0.043 0.274,0.473 -0.516,0.039 2.542,1.479 c 0.461,0.268 0.922,-0.375 0.619,-0.795"
           style="fill:#402000;fill-opacity:1;fill-rule:evenodd;stroke:none"
           id="path74275"
           inkscape:connector-curvature="0" /><path
           d="m 351.083,226.724 c -8,-11.484 -15.975,-16.28 -26.296,-16.523 10.341,0.545 24.325,12.703 25.562,25.327 3.243,-2.247 3.824,-6.88 0.734,-8.804"
           style="fill:#095709;fill-opacity:1;fill-rule:evenodd;stroke:none"
           id="path74277"
           inkscape:connector-curvature="0" /><path
           d="m 330.184,193.675 c 7.539,0 13.686,6.147 13.686,13.687 0,7.537 -6.147,13.687 -13.686,13.687 -7.538,0 -13.688,-6.15 -13.688,-13.687 0,-7.54 6.15,-13.687 13.688,-13.687"
           style="fill:#b80000;fill-opacity:1;fill-rule:evenodd;stroke:none"
           id="path74279"
           inkscape:connector-curvature="0" /><path
           d="m 330.184,221.049 c -7.56,0 -13.688,-6.128 -13.688,-13.687 0,-2.487 0.662,-4.82 1.822,-6.829 2.398,-2.067 5.519,-3.315 8.932,-3.315 7.562,0 13.687,6.126 13.687,13.687 0,2.487 -0.663,4.818 -1.822,6.826 -2.398,2.07 -5.518,3.318 -8.931,3.318"
           style="fill:#e00000;fill-opacity:1;fill-rule:evenodd;stroke:none"
           id="path74281"
           inkscape:connector-curvature="0" /><path
           d="m 322.084,217.866 c 3.533,2.578 7.71,2.007 9.333,-1.269 1.618,-3.28 0.067,-8.026 -3.466,-10.603 -3.534,-2.578 -7.71,-2.01 -9.328,1.27 -1.623,3.276 -0.072,8.024 3.461,10.602"
           style="fill:#eb2323;fill-opacity:1;fill-rule:evenodd;stroke:none"
           id="path74283"
           inkscape:connector-curvature="0" /><path
           d="m 321.681,217.256 c 1.421,1.037 3.106,0.807 3.757,-0.514 0.653,-1.317 0.029,-3.23 -1.395,-4.267 -1.421,-1.037 -3.106,-0.809 -3.759,0.511 -0.65,1.321 -0.026,3.234 1.397,4.27"
           style="fill:#e03d3d;fill-opacity:1;fill-rule:evenodd;stroke:none"
           id="path74285"
           inkscape:connector-curvature="0" /><path
           d="m 320.941,198.23 -2.025,-2.611 -0.01,0.677 -1.473,-0.312 0.115,0.075 0.434,0.535 -0.898,0.057 0.362,0.624 -0.681,0.051 3.356,1.956 c 0.609,0.356 1.219,-0.499 0.82,-1.052"
           style="fill:#402000;fill-opacity:1;fill-rule:evenodd;stroke:none"
           id="path74287"
           inkscape:connector-curvature="0" /><path
           d="m 354.033,193.728 c -8.003,-11.486 -15.971,-16.282 -26.299,-16.524 10.341,0.542 24.327,12.702 25.565,25.323 3.24,-2.241 3.821,-6.879 0.734,-8.799"
           style="fill:#095709;fill-opacity:1;fill-rule:evenodd;stroke:none"
           id="path74289"
           inkscape:connector-curvature="0" /><path
           d="m 333.133,160.677 c 7.54,0 13.687,6.147 13.687,13.684 0,7.542 -6.147,13.69 -13.687,13.69 -7.539,0 -13.69,-6.148 -13.69,-13.69 0,-7.537 6.151,-13.684 13.69,-13.684"
           style="fill:#b80000;fill-opacity:1;fill-rule:evenodd;stroke:none"
           id="path74291"
           inkscape:connector-curvature="0" /><path
           d="m 333.131,188.051 c -7.557,0 -13.688,-6.128 -13.688,-13.69 0,-2.486 0.663,-4.814 1.826,-6.826 2.395,-2.067 5.517,-3.317 8.931,-3.317 7.559,0 13.687,6.131 13.687,13.689 0,2.487 -0.662,4.818 -1.822,6.829 -2.398,2.065 -5.521,3.315 -8.934,3.315"
           style="fill:#e00000;fill-opacity:1;fill-rule:evenodd;stroke:none"
           id="path74293"
           inkscape:connector-curvature="0" /><path
           d="m 325.034,184.865 c 3.531,2.578 7.71,2.012 9.33,-1.266 1.62,-3.28 0.071,-8.028 -3.464,-10.603 -3.533,-2.576 -7.71,-2.01 -9.33,1.27 -1.617,3.279 -0.069,8.024 3.464,10.599"
           style="fill:#eb2323;fill-opacity:1;fill-rule:evenodd;stroke:none"
           id="path74295"
           inkscape:connector-curvature="0" /><path
           d="m 324.629,184.256 c 1.423,1.039 3.105,0.811 3.759,-0.509 0.653,-1.32 0.028,-3.23 -1.395,-4.27 -1.424,-1.039 -3.103,-0.809 -3.757,0.511 -0.652,1.321 -0.028,3.231 1.393,4.268"
           style="fill:#e03d3d;fill-opacity:1;fill-rule:evenodd;stroke:none"
           id="path74297"
           inkscape:connector-curvature="0" /><path
           d="m 323.892,165.235 -2.029,-2.614 -0.009,0.675 -1.471,-0.31 0.112,0.075 0.437,0.538 -0.898,0.057 0.362,0.621 -0.681,0.051 3.355,1.956 c 0.611,0.353 1.22,-0.497 0.822,-1.049"
           style="fill:#402000;fill-opacity:1;fill-rule:evenodd;stroke:none"
           id="path74299"
           inkscape:connector-curvature="0" /><path
           d="m 353.383,155.583 c -5.331,-7.654 -10.646,-10.85 -17.528,-11.013 6.892,0.363 16.214,8.467 17.039,16.88 2.16,-1.496 2.545,-4.585 0.489,-5.867"
           style="fill:#095709;fill-opacity:1;fill-rule:evenodd;stroke:none"
           id="path74301"
           inkscape:connector-curvature="0" /><path
           d="m 339.453,133.556 c 5.026,0 9.122,4.099 9.122,9.121 0,5.026 -4.096,9.124 -9.122,9.124 -5.023,0 -9.121,-4.098 -9.121,-9.124 0,-5.022 4.098,-9.121 9.121,-9.121"
           style="fill:#b80000;fill-opacity:1;fill-rule:evenodd;stroke:none"
           id="path74303"
           inkscape:connector-curvature="0" /><path
           d="m 339.453,151.801 c -5.038,0.002 -9.121,-4.083 -9.121,-9.124 0,-1.656 0.441,-3.209 1.215,-4.549 1.596,-1.378 3.677,-2.211 5.952,-2.211 5.036,0 9.122,4.086 9.122,9.122 0,1.658 -0.441,3.211 -1.215,4.551 -1.598,1.378 -3.677,2.211 -5.953,2.211"
           style="fill:#e00000;fill-opacity:1;fill-rule:evenodd;stroke:none"
           id="path74305"
           inkscape:connector-curvature="0" /><path
           d="m 334.058,149.679 c 2.352,1.716 5.136,1.339 6.216,-0.845 1.08,-2.188 0.048,-5.351 -2.309,-7.067 -2.352,-1.716 -5.137,-1.337 -6.217,0.847 -1.08,2.185 -0.048,5.348 2.31,7.065"
           style="fill:#eb2323;fill-opacity:1;fill-rule:evenodd;stroke:none"
           id="path74307"
           inkscape:connector-curvature="0" /><path
           d="m 333.786,149.272 c 0.948,0.692 2.069,0.539 2.504,-0.34 0.437,-0.878 0.019,-2.156 -0.93,-2.847 -0.948,-0.691 -2.068,-0.537 -2.503,0.341 -0.434,0.881 -0.019,2.156 0.929,2.846"
           style="fill:#e03d3d;fill-opacity:1;fill-rule:evenodd;stroke:none"
           id="path74309"
           inkscape:connector-curvature="0" /><path
           d="m 333.294,136.594 -1.349,-1.742 -0.009,0.451 -0.98,-0.206 0.077,0.048 0.288,0.359 -0.597,0.039 0.242,0.412 -0.456,0.034 2.237,1.306 c 0.407,0.235 0.814,-0.334 0.547,-0.701"
           style="fill:#402000;fill-opacity:1;fill-rule:evenodd;stroke:none"
           id="path74311"
           inkscape:connector-curvature="0" /><path
           d="m 354.384,113.594 c 5.026,0 9.124,4.099 9.124,9.124 0,5.023 -4.098,9.124 -9.124,9.124 -5.022,0 -9.121,-4.101 -9.121,-9.124 0,-5.025 4.099,-9.124 9.121,-9.124"
           style="fill:#b80000;fill-opacity:1;fill-rule:evenodd;stroke:none"
           id="path74313"
           inkscape:connector-curvature="0" /><path
           d="m 354.384,131.842 c -5.036,0 -9.121,-4.086 -9.121,-9.124 0,-1.659 0.441,-3.21 1.214,-4.552 1.598,-1.375 3.677,-2.21 5.953,-2.21 5.036,0 9.121,4.085 9.121,9.123 0,1.659 -0.442,3.212 -1.214,4.552 -1.597,1.375 -3.678,2.211 -5.953,2.211"
           style="fill:#e00000;fill-opacity:1;fill-rule:evenodd;stroke:none"
           id="path74315"
           inkscape:connector-curvature="0" /><path
           d="m 348.987,129.72 c 2.353,1.716 5.137,1.337 6.218,-0.848 1.08,-2.184 0.048,-5.348 -2.308,-7.066 -2.354,-1.717 -5.138,-1.337 -6.218,0.846 -1.08,2.185 -0.046,5.349 2.308,7.068"
           style="fill:#eb2323;fill-opacity:1;fill-rule:evenodd;stroke:none"
           id="path74317"
           inkscape:connector-curvature="0" /><path
           d="m 348.719,129.312 c 0.946,0.691 2.069,0.54 2.504,-0.341 0.434,-0.879 0.016,-2.154 -0.929,-2.847 -0.951,-0.691 -2.069,-0.538 -2.507,0.343 -0.432,0.881 -0.018,2.153 0.932,2.845"
           style="fill:#e03d3d;fill-opacity:1;fill-rule:evenodd;stroke:none"
           id="path74319"
           inkscape:connector-curvature="0" /><path
           d="m 355.329,114.112 0.528,-2.141 -0.36,0.274 -0.446,-0.898 0.01,0.091 -0.101,0.452 -0.403,-0.447 -0.173,0.447 -0.308,-0.334 0.365,2.561 c 0.068,0.466 0.764,0.432 0.888,-0.005"
           style="fill:#402000;fill-opacity:1;fill-rule:evenodd;stroke:none"
           id="path74321"
           inkscape:connector-curvature="0" /></g></g></g></svg>