<?xml version="1.0" encoding="iso-8859-1"?>
<!-- Uploaded to: SVG Repo, www.svgrepo.com, Generator: SVG Repo Mixer Tools -->
<svg height="800px" width="800px" version="1.1" id="Layer_1" xmlns="http://www.w3.org/2000/svg" xmlns:xlink="http://www.w3.org/1999/xlink" 
	 viewBox="0 0 511.757 511.757" xml:space="preserve">
<g>
	<g>
		<path style="fill:#24AE5F;" d="M360.014,286.373c-2.534,0-4.938-1.111-6.587-3.037L301.36,222.59
			c-2.213-2.569-2.708-6.187-1.293-9.268c1.415-3.072,4.487-5.051,7.88-5.051h26.034v-95.458c0-33.488-27.257-60.746-60.746-60.746
			s-60.746,27.257-60.746,60.746v95.458c0,4.799-3.879,8.678-8.678,8.678h-34.712c-4.799,0-8.678-3.879-8.678-8.678v-95.458
			C160.421,50.61,211.031,0,273.234,0s112.814,50.61,112.814,112.814v95.458h26.034c3.393,0,6.465,1.979,7.88,5.051
			c1.414,3.081,0.92,6.699-1.293,9.268l-52.068,60.746C364.952,285.262,362.548,286.373,360.014,286.373"/>
		<path style="fill:#24AE5F;" d="M203.811,260.093h-34.712c-4.799,0-8.678-3.879-8.678-8.678s3.879-8.678,8.678-8.678h34.712
			c4.799,0,8.678,3.879,8.678,8.678S208.61,260.093,203.811,260.093"/>
	</g>
	<path style="fill:#FDD7AD;" d="M501.463,348.314c6.717-5.571,8.088-15.447,2.994-22.545c-10.865-15.134-19.881-18.736-57.665,1.128
		l-75.281,46.011c-22.997,12.227-83.352,8.678-109.403,8.678c0,0,61.457,4.157,36.942-32.438
		c-12.201-18.215-33.237-28.551-55.166-28.551H210.04c-19.725,0-39.198-5.866-54.949-17.738
		c-36.76-27.726-107.485-25.409-107.485-25.409v208.271h121.492c17.33,0,34.634-1.302,51.773-3.914l113.109-17.2
		c3.862,0,7.611-0.451,11.238-1.258l0.182-0.026c9.147-1.293,17.512-5.918,24.194-12.314L501.463,348.314z"/>
	<path style="fill:#F9A671;" d="M288.141,390.263h-84.332c-4.799,0-8.678-3.879-8.678-8.678c0-4.799,3.879-8.678,8.678-8.678h84.332
		c4.799,0,8.678,3.879,8.678,8.678C296.819,386.384,292.94,390.263,288.141,390.263"/>
	<polygon style="fill:#4482C3;" points="4.217,511.757 47.607,511.757 47.607,251.175 4.217,251.175 	"/>
	<path style="fill:#F9A671;" d="M169.099,416.297c-4.799,0-8.678-3.879-8.678-8.678c0-21.738,16.219-34.712,43.39-34.712
		c4.799,0,8.678,3.879,8.678,8.678c0,4.799-3.879,8.678-8.678,8.678c-26.034,0-26.034,13.06-26.034,17.356
		C177.777,412.418,173.898,416.297,169.099,416.297"/>
</g>
</svg>